<?xml version="1.0" encoding="utf-8"?>
<!-- Generator: Adobe Illustrator 24.2.1, SVG Export Plug-In . SVG Version: 6.00 Build 0)  -->
<svg version="1.1" id="レイヤー_1" xmlns="http://www.w3.org/2000/svg" xmlns:xlink="http://www.w3.org/1999/xlink" x="0px"
	 y="0px" viewBox="0 0 119.2 48.8" style="enable-background:new 0 0 119.2 48.8;" xml:space="preserve">
<style type="text/css">
	.st0{fill:url(#SVGID_1_);}
	.st1{fill:#1C355E;}
	.st2{fill:#FFFFFF;}
</style>
<g>
	
		<linearGradient id="SVGID_1_" gradientUnits="userSpaceOnUse" x1="353.4113" y1="136.8725" x2="353.4113" y2="155.9616" gradientTransform="matrix(0.9117 -1.400000e-03 1.500000e-03 1 -262.8335 -111.27)">
		<stop  offset="0" style="stop-color:#FFFFFF"/>
		<stop  offset="0.2133" style="stop-color:#CCD2DB"/>
		<stop  offset="0.7595" style="stop-color:#4F6282"/>
		<stop  offset="1" style="stop-color:#1C355E"/>
	</linearGradient>
	<path class="st0" d="M0,25l119.2-0.2l0,20.9c0,0-20.3-14.5-59.3-2.3c-39,12.2-59.9,0-59.9,0L0,25z"/>
	<path class="st1" d="M27.1,0L5.5,0l0,0.5l1.1,0c1,0,2.6,1.6,2.6,2.2l0,20.2c0,1-1.3,2-2.3,2.4c-0.4,0.2-1,0.2-1.4,0.2l0,0.5l13,0
		l0-0.5l-1.1,0c-1.7,0-2.9-1.1-2.9-2.7l0-9.4l2.6,0c2.5,0,5.5,1.6,6.1,3.8c0.3,0.8,0.3,1.6,0.3,2.5l0.6,0l0-12.2h-0.6
		c0,2.1-1.7,3.3-3.1,4.2c-1.4,0.8-1.6,1.2-4,1.2c-0.7,0-1.3,0.1-1.9,0l0-10c0-0.7,0.2-1.1,0.7-1.6c0.6-0.6,1.4-0.7,2.6-0.7
		c3.7,0,7.7,2.3,9.2,5.5h0L27.1,0z"/>
	<path class="st1" d="M70.3,23.2c-0.3,0.7-0.9,1.9-2,1.9c-0.7,0-0.9-0.3-1-1.2l-0.1-7.3c-0.1-2.8-2-4.6-5.4-4.6
		c-3.1,0-5.5,1.8-5.8,2.9l3,1.2c0.2,0.1,0.5,0.2,0.7,0.2c0.3,0,0.3-0.3,0.3-0.4v-0.3c-0.2-0.3-0.9-0.4-0.9-1.4c0-1,1.3-1.7,2.5-1.7
		c0.9,0,1.5,0.5,1.6,1.3l0,3.9c0,1-7.8,0.9-7.8,5.6c0,1.8,1.7,3.1,4.6,3.1c2.2,0,2.9-1,3.4-1.5c0.4,1,1.7,1.5,3.1,1.5
		c2.2,0,3.5-1.2,4.4-3L70.3,23.2z M63.2,24c-0.3,0.8-0.8,1.5-1.4,1.5c-1.6,0-2.6-1.3-2.6-2.5c0-2.6,1.4-4.3,3.9-4.3L63.2,24z"/>
	<path class="st1" d="M58.2,14.4c0,0.5,0.4,0.9,0.4,0.9c-0.3-0.1-1.4-0.6-1.7-0.8c0.5-0.8,1.6-1.3,1.6-1.3S58.2,13.8,58.2,14.4z"/>
	<g>
		<path class="st1" d="M82.7,13.2c-1-0.7-2.1-1.1-3.7-1.1c-3.6,0-6.8,3.2-6.8,7.3c0,4.3,3.3,7,6.9,7c2,0,2.9-0.6,3.7-1l0.1,0.7
			l7.6,0l0-0.5c-2.2,0-3.3-0.3-3.3-2.3l0-23.3c-1,0.3-3,0.4-4.4,0.4l-3,0l0,0.5c1.7,0,3,0.4,3,1.9L82.7,13.2z M82.7,24.2
			c0,0.8-1.6,1.6-2.7,1.7c-1.7,0-3.1-1.9-3.1-6.5c0-4.5,1.3-6.8,3-6.8c1.1,0,2.7,0.8,2.7,1.6L82.7,24.2z"/>
	</g>
	<g>
		<path class="st2" d="M84.1,25.5H84c-0.4,0-0.7-0.1-0.7-0.7l0-22.2c0-0.7-0.5-1.4-1-1.6V0.9l1.8,0L84.1,25.5z"/>
	</g>
	<g>
		<path class="st1" d="M38.6,26.1l0-0.5l-1,0c-1.4,0-1.7-0.6-1.7-1.4l0-11.9c-1.4,0.2-3.5,0.3-5.2,0.3l-1.6,0l0,0.5l1.2,0
			c0.9,0,1.5,0.6,1.5,1.2l0,10c0,0.8-0.5,1.3-1.2,1.3l-0.8,0l0,0.5L38.6,26.1z"/>
	</g>
	<g>
		<path class="st1" d="M102.4,20.9c0.3,1.6,0.8,4.4,1,5.3c0,0.2,0.1,0.2,0.2,0.2c0.2,0,1.2-0.6,1.6-0.6c2,0,2.6,0.5,3.7,0.5
			c3,0,4.6-1.9,4.6-3.9c0-5.1-7.8-3.9-7.8-7.7c0-1,0.8-1.8,2.3-1.8c2.5,0,4,2.7,4.8,4.9h0.6l-0.9-5.6c-0.7,0.3-1.1,0.4-1.8,0.4
			c-0.8,0-2.2-0.4-3.1-0.3c-2.5,0-4.3,1.3-4.3,4.2c0,5.2,7.7,4.3,7.8,7.4c0,0.9-1,1.7-2.2,1.7c-2.5,0-4.7-3-5.6-5L102.4,20.9z"/>
	</g>
	<g>
		<path class="st2" d="M104.7,13.8c0,0-0.7,1.1-0.5,2.3c0.4,4.3,7.9,3.2,7.9,7c0,1.2-1.1,2.1-1.1,2.1s0.6-0.6,0.6-1.4
			c0-3.9-7.6-2.3-7.8-7.6C103.8,14.6,104.7,13.8,104.7,13.8z"/>
	</g>
	<g>
		<path class="st2" d="M12.1,0.6h0.2c0,0-1.6,0.6-1.6,2.4c0,1.2,0,19.9,0,21c0,1.1,1.5,1.7,1.5,1.7v0l-4.3,0v0c0.7-0.3,2-1,2-2.1
			c0,0,0-20.3,0-20.9c0-0.9-1.7-2-1.7-2v0L12.1,0.6z"/>
		<path class="st2" d="M21.3,14.3c-0.6-0.6-1.3-0.9-2.3-1.2v0c0.8-0.2,1.7-0.8,2.3-1.4L21.3,14.3z"/>
		<path class="st2" d="M26.5,0.5l0,1.8l0,0.1c-0.9-1.1-1.5-1.4-2.8-1.9l0,0L26.5,0.5z"/>
	</g>
	<path class="st2" d="M33.2,13.1l0,11.6c0,0.6-0.3,1-1,1l-0.5,0c0.6-0.3,0.8-0.9,0.8-1.3l0-10.1c0-0.4-0.3-0.8-0.7-1.1L33.2,13.1z"
		/>
	<path class="st1" d="M50.5,12.1c-1,0-2.1,0.6-2.9,1.1l-1.2,0.9l0-1.8c-1.2,0.2-3.6,0.3-5.3,0.3l-1.4,0l0,0.5l1,0
		c0.9,0,1.5,0.6,1.5,1.2l0,9.9c0,1.1-1.3,1.3-2.4,1.3l0,0.5l9,0l0-0.5h-0.7c-1.4,0-1.7-0.6-1.7-1.4l0-9.4l1.8-1.3
		c0.3-0.3,0.6-0.4,0.9-0.4c0.8,0,0.8,0.9,0.9,1.9c0.1,1,0.4,1.9,1.6,1.9c1.3,0,1.9-1,1.9-1.9C53.5,13.2,52.5,12.1,50.5,12.1z"/>
	<path class="st2" d="M43.8,13.2l0,11.4c0,0.6-0.3,1-1,1l-0.5,0c0.6-0.3,0.8-0.9,0.8-1.3l0-10c0-0.4-0.3-0.8-0.7-1.1L43.8,13.2z"/>
	<path class="st2" d="M51,14.1c0.1,0.9,0.2,1.9,1,2.5c-1.7,0.2-1.5-2.3-1.6-2.7c-0.1-0.5,0-0.8-0.7-1C49.7,12.8,50.9,12.7,51,14.1z"
		/>
	<path class="st1" d="M35.9,5.6c0,1.3-1.1,2.3-2.5,2.3c-1.4,0-2.5-1-2.5-2.3c0-1.3,1.1-2.3,2.5-2.3C34.8,3.3,35.9,4.3,35.9,5.6z"/>
	<path class="st2" d="M32.3,5.6c0-0.8,0.4-1.6,0.9-1.9c-0.9,0.1-1.7,0.9-1.7,1.9c0,1,0.7,1.7,1.7,1.9C32.7,7.1,32.3,6.4,32.3,5.6z"
		/>
	<path class="st1" d="M98.2,5.5c0,1.3-1.1,2.3-2.5,2.3c-1.4,0-2.5-1-2.5-2.3c0-1.3,1.1-2.3,2.5-2.3C97.1,3.2,98.2,4.2,98.2,5.5z"/>
	<path class="st2" d="M94.6,5.5c0-0.8,0.4-1.6,0.9-1.9c-0.9,0.1-1.7,0.9-1.7,1.9c0,1,0.7,1.7,1.7,1.9C95,7.1,94.6,6.3,94.6,5.5z"/>
	<g>
		<path class="st1" d="M101,26l0-0.5l-1,0c-1.4,0-1.7-0.6-1.7-1.4l0-11.9c-1.4,0.2-3.5,0.3-5.2,0.3l-1.6,0l0,0.5l1.2,0
			c0.9,0,1.5,0.6,1.5,1.2l0,10c0,0.8-0.5,1.3-1.2,1.3l-0.8,0l0,0.5L101,26z"/>
	</g>
	<path class="st2" d="M95.5,13l0,11.6c0,0.7-0.1,1-0.8,1l-0.7,0c0.6-0.3,0.8-0.9,0.8-1.3l0-10.1c0-0.4-0.3-0.8-0.7-1.1L95.5,13z"/>
	<g>
		<path class="st2" d="M64.7,23.7c0,2.2,1.5,2.3,1.5,2.3s-2.3,0.2-2.3-2l0-9.4c0.1-1-0.2-1.4-0.4-1.8c1.5,1,1.1,2.9,1.1,4.3
			L64.7,23.7z"/>
		<path class="st2" d="M56.8,23.1c0,1.9,1.3,2.8,2.8,3c0,0-3.7,0.1-3.7-2.9c0-2.4,2.8-3.4,2.8-3.4C57.7,20.4,56.8,21.3,56.8,23.1z"
			/>
	</g>
	<path class="st2" d="M73.5,19.4c0,4.5,3.5,6.2,3.5,6.2s-4.3-1.4-4.3-6.2c0-4.8,4.2-6.3,4.2-6.3S73.5,14.9,73.5,19.4z"/>
	<path class="st2" d="M111.4,13.1c0.3,1.1,0.7,2.3,0.7,2.3c-0.5-1.1-1.1-1.6-1.9-2.3C110.1,13.1,111.2,13.3,111.4,13.1z"/>
	<path class="st2" d="M104.4,25.6c-0.2,0.1-0.5,0.3-0.5,0.3l-0.6-2.8c0,0,0.4,1.7,1.7,2.4C104.9,25.5,104.6,25.6,104.4,25.6z"/>
</g>
</svg>
